<?xml version="1.0" encoding="UTF-8"?> <svg xmlns="http://www.w3.org/2000/svg" id="Слой_1" data-name="Слой 1" viewBox="0 0 851 869.01"><defs><style>.cls-1{fill:#fff;}</style></defs><circle cx="425.5" cy="432.5" r="331.5"></circle><circle class="cls-1" cx="425.5" cy="432.5" r="189.5"></circle><polygon points="522 133 336 133 362 0 495 0 522 133"></polygon><polygon points="722.66 298.73 594.57 163.86 708.91 91.12 800.5 187.56 722.66 298.73"></polygon><polygon points="718 536.37 718 350.37 851 376.37 851 509.37 718 536.37"></polygon><polygon points="564.11 719.23 695.63 587.71 771.29 700.14 677.24 794.19 564.11 719.23"></polygon><polygon points="332.03 731.93 517.97 736.72 488.55 869.01 355.6 865.58 332.03 731.93"></polygon><polygon points="128.34 299.44 256.43 164.57 142.09 91.83 50.5 188.27 128.34 299.44"></polygon><polygon points="133 537.08 133 351.08 0 377.08 0 510.08 133 537.08"></polygon><polygon points="286.89 719.95 155.37 588.42 79.71 700.85 173.76 794.9 286.89 719.95"></polygon></svg> 